HIERARCHY
ROOT hip
{
	OFFSET 0.000000 0.000000 0.000000
	CHANNELS 6 Xposition Yposition Zposition Xrotation Zrotation Yrotation 
	JOINT abdomen
	{
		OFFSET 0.000000 3.422050 0.000000
		CHANNELS 3 Xrotation Zrotation Yrotation 
		JOINT chest
		{
			OFFSET 0.000000 8.486693 -0.6844110
			CHANNELS 3 Xrotation Zrotation Yrotation 
			JOINT neck
			{
				OFFSET 0.000000 10.26616 -0.2737640
				CHANNELS 3 Xrotation Zrotation Yrotation 
				JOINT head
				{
					OFFSET 0.000000 3.148285 0.000000
					CHANNELS 3 Xrotation Zrotation Yrotation 
					End Site
					{
						OFFSET 0.000000 3.148289 0.000000
					}
				}
			}
			JOINT lCollar
			{
				OFFSET 3.422053 6.707223 -0.8212930
				CHANNELS 3 Yrotation Zrotation Xrotation 
				JOINT lShldr
				{
					OFFSET 3.285171 0.000000 0.000000
					CHANNELS 3 Zrotation Yrotation Xrotation 
					JOINT lForeArm
					{
						OFFSET 10.12928 0.000000 0.000000
						CHANNELS 3 Yrotation Zrotation Xrotation 
						JOINT lHand
						{
							OFFSET 8.486692 0.000000 0.000000
							CHANNELS 3 Zrotation Yrotation Xrotation 
							End Site
							{
								OFFSET 4.106464 0.000000 0.000000
							}
						}
					}
				}
			}
			JOINT rCollar
			{
				OFFSET -3.558935 6.707223 -0.8212930
				CHANNELS 3 Yrotation Zrotation Xrotation 
				JOINT rShldr
				{
					OFFSET -3.148289 0.000000 0.000000
					CHANNELS 3 Zrotation Yrotation Xrotation 
					JOINT rForeArm
					{
						OFFSET -10.26616 0.000000 0.000000
						CHANNELS 3 Yrotation Zrotation Xrotation 
						JOINT rHand
						{
							OFFSET -8.349810 0.000000 0.000000
							CHANNELS 3 Zrotation Yrotation Xrotation 
							End Site
							{
								OFFSET -4.106464 0.000000 0.000000
							}
						}
					}
				}
			}
		}
	}
	JOINT lThigh
	{
		OFFSET 5.338403 -1.642589 1.368821
		CHANNELS 3 Xrotation Zrotation Yrotation 
		JOINT lShin
		{
			OFFSET -2.053232 -20.12167 0.000000
			CHANNELS 3 Xrotation Zrotation Yrotation 
			JOINT lFoot
			{
				OFFSET 0.000000 -19.30038 -1.231939
				CHANNELS 3 Xrotation Yrotation Zrotation 
				End Site
				{
					OFFSET 0.000000 -2.463878 4.653993
				}
			}
		}
	}
	JOINT rThigh
	{
		OFFSET -5.338403 -1.642589 1.368821
		CHANNELS 3 Xrotation Zrotation Yrotation 
		JOINT rShin
		{
			OFFSET 2.053232 -20.12167 0.000000
			CHANNELS 3 Xrotation Zrotation Yrotation 
			JOINT rFoot
			{
				OFFSET 0.000000 -19.30038 -1.231939
				CHANNELS 3 Xrotation Yrotation Zrotation 
				End Site
				{
					OFFSET 0.000000 -2.463878 4.653993
				}
			}
		}
	}
}
MOTION
Frames:	10
Frame Time:	0.0312500
0.000000 24.50467 -0.5247883 0.000000 0.000000 0.000000 19.75234 -0.4957683 0.000000 -12.27896 2.225596 0.000000 4.000000 0.000000 0.000000 -3.000000 3.056399 0.000000 10.00000 -10.00000 -11.65327 18.05640 -10.00000 0.000000 -20.00000 0.000000 0.000000 0.000000 15.00000 0.000000 -10.00000 10.00000 -11.65327 -18.05640 10.00000 0.000000 20.00000 0.000000 0.000000 0.000000 -15.00000 0.000000 -61.23832 25.00000 15.00000 137.1486 3.000000 0.000000 -25.44580 0.000000 0.000000 -90.44816 -25.00000 -15.00000 63.59002 -3.000000 0.000000 25.84599 0.000000 0.000000 
0.000000 25.00000 -0.5000230 0.000000 0.000000 0.000000 20.00000 -0.000463268 0.000000 -11.50016 0.000463268 0.000000 4.000000 0.000000 0.000000 -3.000000 2.500116 0.000000 10.00000 -10.00000 -12.00000 17.50012 -10.00000 0.000000 -20.00000 0.000000 0.000000 0.000000 15.00000 0.000000 -10.00000 10.00000 -12.00000 -17.50012 10.00000 0.000000 20.00000 0.000000 0.000000 0.000000 -15.00000 0.000000 -60.00000 25.00000 15.00000 137.0000 3.000000 0.000000 -25.00000 0.000000 0.000000 -88.00051 -25.00000 -15.00000 77.49710 -3.000000 0.000000 17.50174 0.000000 0.000000 
0.000000 24.65341 -0.4752655 0.000000 0.000000 0.000000 19.25731 0.4946866 0.000000 -10.72136 -2.224693 0.000000 4.000000 0.000000 0.000000 -3.000000 1.943827 0.000000 10.00000 -10.00000 -11.65341 16.94383 -10.00000 0.000000 -20.00000 0.000000 0.000000 0.000000 15.00000 0.000000 -10.00000 10.00000 -11.65341 -16.94383 10.00000 0.000000 20.00000 0.000000 0.000000 0.000000 -15.00000 0.000000 -68.74953 25.00000 15.00000 130.9595 3.000000 0.000000 -21.03898 0.000000 0.000000 -85.55284 -25.00000 -15.00000 91.40434 -3.000000 0.000000 9.157401 0.000000 0.000000 
0.000000 23.68229 -0.4058963 0.000000 0.000000 0.000000 17.17633 1.882071 0.000000 -9.981595 -4.338301 0.000000 4.000000 0.000000 0.000000 -3.000000 1.415425 0.000000 10.00000 -10.00000 -10.68229 16.41542 -10.00000 0.000000 -20.00000 0.000000 0.000000 0.000000 15.00000 0.000000 -10.00000 10.00000 -10.68229 -16.41542 10.00000 0.000000 20.00000 0.000000 0.000000 0.000000 -15.00000 0.000000 -86.24906 25.00000 15.00000 114.0341 3.000000 0.000000 -9.940420 0.000000 0.000000 -83.22787 -25.00000 -15.00000 104.6144 -3.000000 0.000000 1.231372 0.000000 0.000000 
0.000000 22.27896 -0.3056540 0.000000 0.000000 0.000000 14.16920 3.886919 0.000000 -9.317966 -6.234381 0.000000 4.000000 0.000000 0.000000 -3.000000 0.9414049 0.000000 10.00000 -10.00000 -9.278958 15.94141 -10.00000 0.000000 -20.00000 0.000000 0.000000 0.000000 15.00000 0.000000 -10.00000 10.00000 -9.278958 -15.94141 10.00000 0.000000 20.00000 0.000000 0.000000 0.000000 -15.00000 0.000000 -95.00000 25.00000 15.00000 89.57614 3.000000 0.000000 6.097614 0.000000 0.000000 -81.14218 -25.00000 -15.00000 116.4649 -3.000000 0.000000 -5.878927 0.000000 0.000000 
0.000000 20.72136 -0.1943916 0.000000 0.000000 0.000000 10.83148 6.112166 0.000000 -8.763749 -7.817861 0.000000 4.000000 0.000000 0.000000 -3.000000 0.5455348 0.000000 10.00000 -10.00000 -7.721357 15.54554 -10.00000 0.000000 -20.00000 0.000000 0.000000 0.000000 15.00000 0.000000 -10.00000 10.00000 -7.721357 -15.54554 10.00000 0.000000 20.00000 0.000000 0.000000 0.000000 -15.00000 0.000000 -95.14644 25.00000 15.00000 62.42937 3.000000 0.000000 23.89877 0.000000 0.000000 -79.40035 -25.00000 -15.00000 126.3616 -3.000000 0.000000 -11.81698 0.000000 0.000000 
0.000000 19.31797 -0.09414481 0.000000 0.000000 0.000000 7.824214 8.117103 0.000000 -8.346729 -9.009344 0.000000 4.000000 0.000000 0.000000 -3.000000 0.2476640 0.000000 10.00000 -10.00000 -6.317967 15.24766 -10.00000 0.000000 -20.00000 0.000000 0.000000 0.000000 15.00000 0.000000 -10.00000 10.00000 -6.317967 -15.24766 10.00000 0.000000 20.00000 0.000000 0.000000 0.000000 -15.00000 0.000000 -95.49998 25.00000 15.00000 37.97028 3.000000 0.000000 39.93752 0.000000 0.000000 -78.08972 -25.00000 -15.00000 133.8084 -3.000000 0.000000 -16.28504 0.000000 0.000000 
0.000000 18.34673 -0.02476754 0.000000 0.000000 0.000000 5.742992 9.504649 0.000000 -8.087819 -9.749087 0.000000 4.000000 0.000000 0.000000 -3.000000 0.06272809 0.000000 10.00000 -10.00000 -5.346730 15.06273 -10.00000 0.000000 -20.00000 0.000000 0.000000 0.000000 15.00000 0.000000 -10.00000 10.00000 -5.346730 -15.06273 10.00000 0.000000 20.00000 0.000000 0.000000 0.000000 -15.00000 0.000000 -95.85353 25.00000 15.00000 21.04300 3.000000 0.000000 51.03738 0.000000 0.000000 -77.27600 -25.00000 -15.00000 138.4318 -3.000000 0.000000 -19.05908 0.000000 0.000000 
0.000000 18.00000 0.000000 0.000000 0.000000 0.000000 5.000000 10.00000 0.000000 -8.000000 -10.00000 0.000000 4.000000 0.000000 0.000000 -3.000000 0.000000 0.000000 10.00000 -10.00000 -5.000000 15.00000 -10.00000 0.000000 -20.00000 0.000000 0.000000 0.000000 15.00000 0.000000 -10.00000 10.00000 -5.000000 -15.00000 10.00000 0.000000 20.00000 0.000000 0.000000 0.000000 -15.00000 0.000000 -96.00000 25.00000 15.00000 15.00000 3.000000 0.000000 55.00000 0.000000 0.000000 -77.00000 -25.00000 -15.00000 140.0000 -3.000000 0.000000 -20.00000 0.000000 0.000000 
0.000000 16.50007 -0.4999768 0.000000 0.000000 0.000000 9.999768 10.00000 0.000000 -11.49984 -10.00000 0.000000 4.000000 0.000000 0.000000 -3.000000 -2.499884 0.000000 10.00000 -10.00000 -5.000000 17.49988 -10.00000 0.000000 -20.00000 0.000000 0.000000 0.000000 15.00000 0.000000 -10.00000 10.00000 -5.000000 -17.49988 10.00000 0.000000 20.00000 0.000000 0.000000 0.000000 -15.00000 0.000000 -97.49993 25.00000 15.00000 15.00000 3.000000 0.000000 55.00000 0.000000 0.000000 -80.99982 -25.00000 -15.00000 140.0000 -3.000000 0.000000 -26.99968 0.000000 0.000000 
